<svg width="1600" height="1080" viewBox="0 0 1600 1080" fill="none" xmlns="http://www.w3.org/2000/svg">
<g clip-path="url(#clip0)">
<rect width="1600" height="1080" fill="white"/>
<path d="M1043.61 483.882H1049.21V486H1040.97V473.203H1043.61V483.882ZM1060.68 479.892C1060.68 481.151 1060.46 482.256 1060.01 483.205C1059.57 484.154 1058.93 484.887 1058.09 485.402C1057.27 485.918 1056.32 486.176 1055.25 486.176C1054.19 486.176 1053.24 485.921 1052.41 485.411C1051.58 484.901 1050.93 484.175 1050.47 483.231C1050.02 482.282 1049.79 481.192 1049.78 479.962V479.329C1049.78 478.069 1050.01 476.962 1050.46 476.007C1050.91 475.046 1051.56 474.311 1052.38 473.801C1053.21 473.285 1054.16 473.027 1055.23 473.027C1056.3 473.027 1057.24 473.285 1058.07 473.801C1058.9 474.311 1059.54 475.046 1059.99 476.007C1060.45 476.962 1060.68 478.066 1060.68 479.32V479.892ZM1058.01 479.312C1058.01 477.97 1057.77 476.95 1057.29 476.253C1056.81 475.556 1056.12 475.207 1055.23 475.207C1054.34 475.207 1053.66 475.553 1053.18 476.244C1052.7 476.93 1052.46 477.938 1052.45 479.268V479.892C1052.45 481.198 1052.69 482.212 1053.17 482.933C1053.65 483.653 1054.34 484.014 1055.25 484.014C1056.13 484.014 1056.81 483.668 1057.29 482.977C1057.76 482.279 1058 481.266 1058.01 479.936V479.312ZM1072.72 484.383C1072.25 484.951 1071.57 485.394 1070.71 485.71C1069.84 486.021 1068.88 486.176 1067.82 486.176C1066.72 486.176 1065.74 485.936 1064.91 485.455C1064.07 484.969 1063.43 484.266 1062.97 483.346C1062.52 482.426 1062.29 481.345 1062.28 480.103V479.232C1062.28 477.955 1062.49 476.851 1062.92 475.919C1063.35 474.981 1063.97 474.267 1064.78 473.774C1065.6 473.276 1066.55 473.027 1067.64 473.027C1069.16 473.027 1070.34 473.391 1071.2 474.117C1072.05 474.838 1072.56 475.89 1072.72 477.272H1070.15C1070.04 476.54 1069.78 476.004 1069.37 475.664C1068.97 475.324 1068.42 475.154 1067.72 475.154C1066.82 475.154 1066.14 475.491 1065.67 476.165C1065.2 476.839 1064.96 477.841 1064.96 479.171V479.988C1064.96 481.33 1065.21 482.344 1065.72 483.029C1066.23 483.715 1066.98 484.058 1067.96 484.058C1068.96 484.058 1069.66 483.847 1070.08 483.425V481.219H1067.68V479.276H1072.72V484.383ZM1082.15 486H1079.51V473.203H1082.15V486ZM1095.01 486H1092.37L1087.24 477.58V486H1084.6V473.203H1087.24L1092.38 481.641V473.203H1095.01V486Z" fill="white"/>
<path d="M1071.96 780.493H1068.54V790H1067.14V780.493H1063.72V779.336H1071.96V780.493ZM1072.24 785.964C1072.24 785.188 1072.39 784.49 1072.7 783.87C1073 783.25 1073.43 782.771 1073.97 782.434C1074.52 782.097 1075.14 781.929 1075.84 781.929C1076.92 781.929 1077.79 782.302 1078.45 783.049C1079.12 783.796 1079.46 784.79 1079.46 786.03V786.125C1079.46 786.897 1079.31 787.59 1079.01 788.206C1078.72 788.816 1078.29 789.292 1077.74 789.634C1077.2 789.976 1076.57 790.146 1075.85 790.146C1074.78 790.146 1073.91 789.773 1073.24 789.026C1072.57 788.279 1072.24 787.29 1072.24 786.06V785.964ZM1073.6 786.125C1073.6 787.004 1073.81 787.71 1074.21 788.242C1074.62 788.774 1075.17 789.041 1075.85 789.041C1076.54 789.041 1077.09 788.772 1077.49 788.235C1077.9 787.693 1078.1 786.936 1078.1 785.964C1078.1 785.095 1077.89 784.392 1077.48 783.855C1077.07 783.313 1076.52 783.042 1075.84 783.042C1075.17 783.042 1074.63 783.308 1074.22 783.84C1073.81 784.373 1073.6 785.134 1073.6 786.125ZM1082.99 780.156V782.075H1084.47V783.123H1082.99V788.037C1082.99 788.354 1083.06 788.594 1083.19 788.755C1083.32 788.911 1083.55 788.989 1083.87 788.989C1084.02 788.989 1084.24 788.96 1084.51 788.901V790C1084.15 790.098 1083.81 790.146 1083.47 790.146C1082.86 790.146 1082.41 789.963 1082.1 789.597C1081.79 789.231 1081.64 788.711 1081.64 788.037V783.123H1080.2V782.075H1081.64V780.156H1082.99ZM1090.96 790C1090.88 789.844 1090.81 789.565 1090.77 789.165C1090.14 789.819 1089.38 790.146 1088.51 790.146C1087.73 790.146 1087.09 789.927 1086.58 789.487C1086.08 789.043 1085.84 788.481 1085.84 787.803C1085.84 786.978 1086.15 786.338 1086.77 785.884C1087.4 785.425 1088.29 785.195 1089.42 785.195H1090.74V784.573C1090.74 784.099 1090.6 783.723 1090.32 783.445C1090.04 783.162 1089.62 783.02 1089.07 783.02C1088.58 783.02 1088.18 783.142 1087.85 783.386C1087.52 783.63 1087.36 783.926 1087.36 784.272H1086C1086 783.877 1086.14 783.496 1086.41 783.13C1086.7 782.759 1087.08 782.466 1087.56 782.251C1088.04 782.036 1088.57 781.929 1089.15 781.929C1090.06 781.929 1090.77 782.158 1091.29 782.617C1091.81 783.071 1092.08 783.699 1092.1 784.5V788.147C1092.1 788.875 1092.19 789.453 1092.38 789.883V790H1090.96ZM1088.71 788.967C1089.13 788.967 1089.53 788.857 1089.92 788.638C1090.3 788.418 1090.57 788.132 1090.74 787.781V786.155H1089.68C1088.02 786.155 1087.19 786.641 1087.19 787.612C1087.19 788.037 1087.33 788.369 1087.62 788.608C1087.9 788.848 1088.26 788.967 1088.71 788.967ZM1095.69 790H1094.34V778.75H1095.69V790ZM1110 790H1108.58V785.071H1103.21V790H1101.8V779.336H1103.21V783.921H1108.58V779.336H1110V790ZM1115.57 790.146C1114.5 790.146 1113.62 789.795 1112.95 789.092C1112.28 788.384 1111.94 787.439 1111.94 786.257V786.008C1111.94 785.222 1112.09 784.521 1112.39 783.906C1112.69 783.286 1113.11 782.803 1113.65 782.456C1114.19 782.104 1114.77 781.929 1115.4 781.929C1116.43 781.929 1117.23 782.268 1117.81 782.947C1118.38 783.625 1118.66 784.597 1118.66 785.862V786.426H1113.29C1113.31 787.207 1113.54 787.839 1113.98 788.323C1114.42 788.801 1114.97 789.041 1115.65 789.041C1116.12 789.041 1116.53 788.943 1116.86 788.748C1117.19 788.552 1117.48 788.293 1117.73 787.971L1118.56 788.616C1117.9 789.636 1116.9 790.146 1115.57 790.146ZM1115.4 783.042C1114.86 783.042 1114.4 783.242 1114.03 783.643C1113.66 784.038 1113.43 784.595 1113.34 785.312H1117.31V785.21C1117.27 784.521 1117.08 783.989 1116.75 783.613C1116.42 783.232 1115.97 783.042 1115.4 783.042ZM1125.13 790C1125.05 789.844 1124.99 789.565 1124.94 789.165C1124.31 789.819 1123.56 790.146 1122.68 790.146C1121.9 790.146 1121.26 789.927 1120.76 789.487C1120.26 789.043 1120.01 788.481 1120.01 787.803C1120.01 786.978 1120.32 786.338 1120.95 785.884C1121.58 785.425 1122.46 785.195 1123.6 785.195H1124.92V784.573C1124.92 784.099 1124.78 783.723 1124.49 783.445C1124.21 783.162 1123.79 783.02 1123.24 783.02C1122.76 783.02 1122.35 783.142 1122.02 783.386C1121.7 783.63 1121.53 783.926 1121.53 784.272H1120.17C1120.17 783.877 1120.31 783.496 1120.59 783.13C1120.87 782.759 1121.25 782.466 1121.73 782.251C1122.22 782.036 1122.75 781.929 1123.32 781.929C1124.23 781.929 1124.95 782.158 1125.47 782.617C1125.98 783.071 1126.25 783.699 1126.27 784.5V788.147C1126.27 788.875 1126.37 789.453 1126.55 789.883V790H1125.13ZM1122.88 788.967C1123.31 788.967 1123.71 788.857 1124.09 788.638C1124.47 788.418 1124.75 788.132 1124.92 787.781V786.155H1123.86C1122.2 786.155 1121.37 786.641 1121.37 787.612C1121.37 788.037 1121.51 788.369 1121.79 788.608C1122.07 788.848 1122.44 788.967 1122.88 788.967ZM1132.23 783.291C1132.02 783.257 1131.8 783.24 1131.56 783.24C1130.67 783.24 1130.07 783.618 1129.75 784.375V790H1128.4V782.075H1129.72L1129.74 782.991C1130.18 782.283 1130.81 781.929 1131.63 781.929C1131.89 781.929 1132.09 781.963 1132.23 782.031V783.291ZM1135.68 780.156V782.075H1137.16V783.123H1135.68V788.037C1135.68 788.354 1135.75 788.594 1135.88 788.755C1136.01 788.911 1136.24 788.989 1136.56 788.989C1136.71 788.989 1136.93 788.96 1137.2 788.901V790C1136.84 790.098 1136.5 790.146 1136.16 790.146C1135.56 790.146 1135.1 789.963 1134.79 789.597C1134.48 789.231 1134.33 788.711 1134.33 788.037V783.123H1132.89V782.075H1134.33V780.156H1135.68ZM1143.37 787.898C1143.37 787.532 1143.23 787.249 1142.95 787.048C1142.68 786.843 1142.2 786.667 1141.51 786.521C1140.82 786.375 1140.28 786.199 1139.87 785.994C1139.47 785.789 1139.18 785.544 1138.98 785.261C1138.79 784.978 1138.69 784.641 1138.69 784.25C1138.69 783.601 1138.97 783.052 1139.52 782.603C1140.07 782.153 1140.77 781.929 1141.62 781.929C1142.52 781.929 1143.25 782.161 1143.81 782.625C1144.37 783.088 1144.65 783.682 1144.65 784.404H1143.29C1143.29 784.033 1143.13 783.713 1142.81 783.445C1142.5 783.176 1142.1 783.042 1141.62 783.042C1141.13 783.042 1140.75 783.149 1140.47 783.364C1140.19 783.579 1140.05 783.86 1140.05 784.207C1140.05 784.534 1140.18 784.78 1140.44 784.946C1140.7 785.112 1141.16 785.271 1141.84 785.422C1142.52 785.574 1143.06 785.754 1143.48 785.964C1143.9 786.174 1144.21 786.428 1144.42 786.726C1144.62 787.019 1144.72 787.378 1144.72 787.803C1144.72 788.511 1144.44 789.08 1143.87 789.509C1143.31 789.934 1142.57 790.146 1141.67 790.146C1141.03 790.146 1140.47 790.034 1139.98 789.81C1139.5 789.585 1139.11 789.272 1138.83 788.872C1138.56 788.467 1138.42 788.03 1138.42 787.561H1139.78C1139.8 788.015 1139.98 788.376 1140.32 788.645C1140.66 788.909 1141.11 789.041 1141.67 789.041C1142.18 789.041 1142.59 788.938 1142.9 788.733C1143.21 788.523 1143.37 788.245 1143.37 787.898ZM1158.29 788.601C1157.93 789.119 1157.43 789.507 1156.78 789.766C1156.13 790.02 1155.38 790.146 1154.52 790.146C1153.65 790.146 1152.88 789.944 1152.21 789.539C1151.53 789.128 1151.01 788.547 1150.64 787.795C1150.27 787.043 1150.09 786.172 1150.08 785.181V784.25C1150.08 782.644 1150.45 781.399 1151.2 780.515C1151.95 779.631 1153 779.189 1154.36 779.189C1155.47 779.189 1156.37 779.475 1157.05 780.046C1157.73 780.613 1158.14 781.418 1158.29 782.463H1156.89C1156.62 781.052 1155.78 780.347 1154.37 780.347C1153.43 780.347 1152.71 780.679 1152.22 781.343C1151.74 782.002 1151.5 782.959 1151.49 784.214V785.085C1151.49 786.282 1151.76 787.234 1152.31 787.942C1152.86 788.645 1153.6 788.997 1154.53 788.997C1155.06 788.997 1155.52 788.938 1155.91 788.821C1156.31 788.704 1156.64 788.506 1156.9 788.228V785.833H1154.43V784.69H1158.29V788.601ZM1161.91 790H1160.55V782.075H1161.91V790ZM1160.44 779.973C1160.44 779.753 1160.51 779.568 1160.64 779.417C1160.77 779.265 1160.98 779.189 1161.24 779.189C1161.5 779.189 1161.7 779.265 1161.84 779.417C1161.98 779.568 1162.04 779.753 1162.04 779.973C1162.04 780.193 1161.98 780.376 1161.84 780.522C1161.7 780.669 1161.5 780.742 1161.24 780.742C1160.98 780.742 1160.77 780.669 1160.64 780.522C1160.51 780.376 1160.44 780.193 1160.44 779.973ZM1166.7 788.162L1168.66 782.075H1170.04L1167.2 790H1166.17L1163.3 782.075H1164.68L1166.7 788.162ZM1174.53 790.146C1173.46 790.146 1172.58 789.795 1171.91 789.092C1171.24 788.384 1170.9 787.439 1170.9 786.257V786.008C1170.9 785.222 1171.05 784.521 1171.35 783.906C1171.65 783.286 1172.07 782.803 1172.61 782.456C1173.15 782.104 1173.73 781.929 1174.36 781.929C1175.39 781.929 1176.19 782.268 1176.77 782.947C1177.34 783.625 1177.62 784.597 1177.62 785.862V786.426H1172.25C1172.27 787.207 1172.5 787.839 1172.94 788.323C1173.38 788.801 1173.93 789.041 1174.61 789.041C1175.08 789.041 1175.49 788.943 1175.82 788.748C1176.15 788.552 1176.44 788.293 1176.69 787.971L1177.52 788.616C1176.86 789.636 1175.86 790.146 1174.53 790.146ZM1174.36 783.042C1173.82 783.042 1173.36 783.242 1172.99 783.643C1172.62 784.038 1172.39 784.595 1172.3 785.312H1176.27V785.21C1176.23 784.521 1176.04 783.989 1175.71 783.613C1175.38 783.232 1174.93 783.042 1174.36 783.042ZM1180.48 782.075L1180.52 783.071C1181.13 782.31 1181.92 781.929 1182.9 781.929C1184.57 781.929 1185.42 782.874 1185.43 784.763V790H1184.08V784.756C1184.07 784.185 1183.94 783.762 1183.68 783.489C1183.43 783.215 1183.03 783.079 1182.49 783.079C1182.05 783.079 1181.66 783.196 1181.33 783.43C1181 783.665 1180.74 783.972 1180.55 784.353V790H1179.2V782.075H1180.48ZM1187.43 789.29C1187.43 789.055 1187.5 788.86 1187.64 788.704C1187.78 788.547 1187.99 788.469 1188.27 788.469C1188.54 788.469 1188.75 788.547 1188.9 788.704C1189.04 788.86 1189.11 789.055 1189.11 789.29C1189.11 789.514 1189.04 789.702 1188.9 789.854C1188.75 790.005 1188.54 790.081 1188.27 790.081C1187.99 790.081 1187.78 790.005 1187.64 789.854C1187.5 789.702 1187.43 789.514 1187.43 789.29ZM1187.44 782.822C1187.44 782.588 1187.51 782.393 1187.64 782.236C1187.78 782.08 1187.99 782.002 1188.27 782.002C1188.55 782.002 1188.76 782.08 1188.9 782.236C1189.05 782.393 1189.12 782.588 1189.12 782.822C1189.12 783.047 1189.05 783.235 1188.9 783.386C1188.76 783.538 1188.55 783.613 1188.27 783.613C1187.99 783.613 1187.78 783.538 1187.64 783.386C1187.51 783.235 1187.44 783.047 1187.44 782.822ZM1199.67 790H1197.55V781.841L1195.03 782.625V780.903L1199.44 779.321H1199.67V790ZM1210.32 785.591C1210.32 787.065 1210.01 788.193 1209.4 788.975C1208.79 789.756 1207.9 790.146 1206.72 790.146C1205.56 790.146 1204.67 789.763 1204.06 788.997C1203.44 788.23 1203.13 787.131 1203.11 785.701V783.738C1203.11 782.249 1203.42 781.118 1204.03 780.347C1204.65 779.575 1205.55 779.189 1206.71 779.189C1207.87 779.189 1208.76 779.573 1209.37 780.339C1209.99 781.101 1210.3 782.197 1210.32 783.628V785.591ZM1208.2 783.438C1208.2 782.554 1208.08 781.912 1207.84 781.511C1207.6 781.106 1207.22 780.903 1206.71 780.903C1206.21 780.903 1205.84 781.096 1205.6 781.482C1205.37 781.863 1205.24 782.461 1205.23 783.276V785.869C1205.23 786.738 1205.35 787.385 1205.58 787.81C1205.82 788.23 1206.2 788.44 1206.72 788.44C1207.24 788.44 1207.61 788.237 1207.84 787.832C1208.07 787.427 1208.19 786.807 1208.2 785.972V783.438ZM1218.93 785.591C1218.93 787.065 1218.63 788.193 1218.02 788.975C1217.41 789.756 1216.51 790.146 1215.34 790.146C1214.17 790.146 1213.28 789.763 1212.67 788.997C1212.05 788.23 1211.74 787.131 1211.72 785.701V783.738C1211.72 782.249 1212.03 781.118 1212.65 780.347C1213.27 779.575 1214.16 779.189 1215.32 779.189C1216.48 779.189 1217.37 779.573 1217.99 780.339C1218.6 781.101 1218.92 782.197 1218.93 783.628V785.591ZM1216.81 783.438C1216.81 782.554 1216.69 781.912 1216.45 781.511C1216.21 781.106 1215.83 780.903 1215.32 780.903C1214.82 780.903 1214.45 781.096 1214.21 781.482C1213.98 781.863 1213.86 782.461 1213.84 783.276V785.869C1213.84 786.738 1213.96 787.385 1214.19 787.81C1214.43 788.23 1214.81 788.44 1215.34 788.44C1215.85 788.44 1216.23 788.237 1216.46 787.832C1216.69 787.427 1216.81 786.807 1216.81 785.972V783.438Z" fill="white"/>
<mask id="mask0" mask-type="alpha" maskUnits="userSpaceOnUse" x="-795" y="-843" width="2508" height="1987">
<rect width="2478.4" height="1953.58" transform="matrix(-0.999914 0.0131407 -0.014584 -0.999894 1712.36 1110.73)" fill="#C4C4C4"/>
</mask>
<g mask="url(#mask0)">
<path d="M-842.89 1219.29C-662.63 1228.82 -489.58 1236.61 -323.449 1242.87L254.517 629.939L4178.02 89.8273L1410.45 -2903.8L-835.706 -1081.7L-842.89 1219.29Z" fill="url(#paint0_linear)"/>
</g>
<path d="M125.714 449.577C135.629 430.232 155.245 429.331 155.245 429.331C155.245 429.331 174.36 426.508 186.622 455.97C198.051 483.43 213.824 509.944 189.161 516.373L184.706 500.362L181.947 517.564C178.436 517.856 174.913 517.926 171.395 517.773C144.982 516.788 119.828 518.061 120.638 507.117C121.715 492.569 116.174 468.19 125.714 449.577Z" fill="#2F2E41"/>
<path d="M125.714 449.577C135.629 430.232 155.245 429.331 155.245 429.331C155.245 429.331 174.36 426.508 186.622 455.97C198.051 483.43 213.824 509.944 189.161 516.373L184.706 500.362L181.947 517.564C178.436 517.856 174.913 517.926 171.395 517.773C144.982 516.788 119.828 518.061 120.638 507.117C121.715 492.569 116.174 468.19 125.714 449.577Z" fill="#2F2E41"/>
<path d="M87.3327 547.383L84.4445 599.93L103.222 671.836L113.333 654.135L101.296 599.377L109 556.786L87.3327 547.383Z" fill="#FFB9B9"/>
<path d="M87.3327 547.383L84.4445 599.93L103.222 671.836L113.333 654.135L101.296 599.377L109 556.786L87.3327 547.383Z" fill="#FFB9B9"/>
<path d="M187.993 584.373V614.42L204.444 658.125H191.864L174.444 620.976V582.188L187.993 584.373Z" fill="#FFB9B9"/>
<path d="M187.993 584.373V614.42L204.444 658.125H191.864L174.444 620.976V582.188L187.993 584.373Z" fill="#FFB9B9"/>
<path d="M100.197 834.258L92.2222 856.809L105.827 863.789L113.333 845.533L100.197 834.258Z" fill="#FFB9B9"/>
<path d="M100.197 834.258L92.2222 856.809L105.827 863.789L113.333 845.533L100.197 834.258Z" fill="#FFB9B9"/>
<path d="M157.461 865.979L155.556 907.031L173.175 899.915L175.556 863.789L157.461 865.979Z" fill="#FFB9B9"/>
<path d="M157.461 865.979L155.556 907.031L173.175 899.915L175.556 863.789L157.461 865.979Z" fill="#FFB9B9"/>
<path d="M204.444 658.456L186.017 869.521L153.47 871.172L151.556 728.077L143.419 788.617L113.265 855.211L95.5555 837.049L103.214 677.994C99.3845 654.328 111.829 636.166 111.829 636.166L113.475 615.626L113.791 611.746L114.701 600.392L173.333 600.117L177.239 607.547L179.201 611.279L186.496 625.159L204.444 658.456Z" fill="#2F2E41"/>
<path d="M97.135 851.428L95.2073 844.805L83.1589 866.884C83.1589 866.884 71.5924 903.867 86.5324 903.867C101.472 903.867 105.81 879.028 105.81 879.028L111.111 857.5C111.111 857.5 98.5808 855.844 97.135 851.428Z" fill="#2F2E41"/>
<path d="M97.135 851.428L95.2073 844.805L83.1589 866.884C83.1589 866.884 71.5924 903.867 86.5324 903.867C101.472 903.867 105.81 879.028 105.81 879.028L111.111 857.5C111.111 857.5 98.5808 855.844 97.135 851.428Z" fill="#2F2E41"/>
<path d="M157.764 900.876C157.764 900.876 174.994 896.557 175.473 899.256C175.951 901.956 179.302 918.154 179.302 918.154C179.302 918.154 210.411 951.629 189.352 953.248C168.294 954.868 158.721 945.689 157.764 940.83C156.807 935.971 154.893 931.652 151.064 929.492C147.235 927.332 142.449 920.313 145.32 914.914C148.192 909.515 155.861 897.539 155.861 897.539L157.764 900.876Z" fill="#2F2E41"/>
<path d="M157.222 500.977C170.416 500.977 181.111 488.935 181.111 474.082C181.111 459.229 170.416 447.188 157.222 447.188C144.029 447.188 133.333 459.229 133.333 474.082C133.333 488.935 144.029 500.977 157.222 500.977Z" fill="#FFB9B9"/>
<path d="M157.222 500.977C170.416 500.977 181.111 488.935 181.111 474.082C181.111 459.229 170.416 447.188 157.222 447.188C144.029 447.188 133.333 459.229 133.333 474.082C133.333 488.935 144.029 500.977 157.222 500.977Z" fill="#FFB9B9"/>
<path d="M142.09 483.047C142.09 483.047 135.43 512.092 128.771 515.928C122.111 519.764 151.128 538.945 151.128 538.945L167.778 532.917C167.778 532.917 150.653 518.12 165.399 496.199L142.09 483.047Z" fill="#FFB9B9"/>
<path d="M142.09 483.047C142.09 483.047 135.43 512.092 128.771 515.928C122.111 519.764 151.128 538.945 151.128 538.945L167.778 532.917C167.778 532.917 150.653 518.12 165.399 496.199L142.09 483.047Z" fill="#FFB9B9"/>
<path d="M150.737 526.216C150.737 526.216 139.562 519.124 133.179 510.942C126.796 502.759 103.333 510.942 103.333 510.942V579.133L107.164 602.045L113.867 607.5L174.199 603.136L190 544.219L162.691 524.957C162.691 524.957 158.398 531.672 150.737 526.216Z" fill="#575A89"/>
<path d="M150.737 526.216C150.737 526.216 139.562 519.124 133.179 510.942C126.796 502.759 103.333 510.942 103.333 510.942V579.133L107.164 602.045L113.867 607.5L174.199 603.136L190 544.219L162.691 524.957C162.691 524.957 158.398 531.672 150.737 526.216Z" fill="#575A89"/>
<path d="M108.268 511.578L102.581 510.469L78.8889 549.84L111.111 564.258L108.268 511.578Z" fill="#575A89"/>
<path d="M108.268 511.578L102.581 510.469L78.8889 549.84L111.111 564.258L108.268 511.578Z" fill="#575A89"/>
<path d="M181.795 542.109L189.658 544.289L195.556 588.445L170 590.625L181.795 542.109Z" fill="#575A89"/>
<path d="M181.795 542.109L189.658 544.289L195.556 588.445L170 590.625L181.795 542.109Z" fill="#575A89"/>
<path d="M176.931 607.5L113.648 611.885L113.333 615.937L178.889 611.397L176.931 607.5Z" fill="#575A89"/>
<path d="M176.931 607.5L113.648 611.885L113.333 615.937L178.889 611.397L176.931 607.5Z" fill="#575A89"/>
<path d="M152.222 446.133C160.2 446.133 166.667 438.814 166.667 429.785C166.667 420.757 160.2 413.438 152.222 413.438C144.245 413.438 137.778 420.757 137.778 429.785C137.778 438.814 144.245 446.133 152.222 446.133Z" fill="#2F2E41"/>
<path d="M152.222 446.133C160.2 446.133 166.667 438.814 166.667 429.785C166.667 420.757 160.2 413.438 152.222 413.438C144.245 413.438 137.778 420.757 137.778 429.785C137.778 438.814 144.245 446.133 152.222 446.133Z" fill="#2F2E41"/>
<path d="M168.148 425.566C168.148 421.529 166.861 417.634 164.536 414.633C162.211 411.632 159.012 409.736 155.556 409.311C156.048 409.25 156.542 409.219 157.037 409.219C160.77 409.219 164.349 410.941 166.989 414.007C169.628 417.073 171.111 421.231 171.111 425.566C171.111 429.902 169.628 434.06 166.989 437.126C164.349 440.192 160.77 441.914 157.037 441.914C156.542 441.913 156.048 441.883 155.556 441.822C159.012 441.397 162.211 439.501 164.536 436.5C166.861 433.498 168.148 429.604 168.148 425.566Z" fill="#2F2E41"/>
<path d="M168.148 425.566C168.148 421.529 166.861 417.634 164.536 414.633C162.211 411.632 159.012 409.736 155.556 409.311C156.048 409.25 156.542 409.219 157.037 409.219C160.77 409.219 164.349 410.941 166.989 414.007C169.628 417.073 171.111 421.231 171.111 425.566C171.111 429.902 169.628 434.06 166.989 437.126C164.349 440.192 160.77 441.914 157.037 441.914C156.542 441.913 156.048 441.883 155.556 441.822C159.012 441.397 162.211 439.501 164.536 436.5C166.861 433.498 168.148 429.604 168.148 425.566Z" fill="#2F2E41"/>
<path d="M129.805 448.243L149.044 436.641L175.614 441.387L181.111 469.336L167.427 468.73L163.604 458.462V468.561L157.291 468.281L153.626 451.934L151.335 469.336L128.889 468.809L129.805 448.243Z" fill="#2F2E41"/>
</g>
<defs>
<linearGradient id="paint0_linear" x1="1702.1" y1="-1285.88" x2="660.132" y2="846.499" gradientUnits="userSpaceOnUse">
<stop offset="0.00520833" stop-color="#EE2626" stop-opacity="0"/>
<stop offset="0.776042" stop-color="#F96B84" stop-opacity="0.92"/>
</linearGradient>
<clipPath id="clip0">
<rect width="1600" height="1080" fill="white"/>
</clipPath>
</defs>
</svg>
